<svg width="140" height="20" viewBox="0 0 140 20" fill="none" xmlns="http://www.w3.org/2000/svg">
<g clip-path="url(#clip0_648_100)">
<path d="M30.0254 18.8639C29.3178 18.8275 20.8183 18.8639 20.8183 18.8639C20.803 18.4814 20.8527 8.13245 20.8527 8.13245C20.8527 7.69256 20.3995 7.51661 19.9481 7.51661C19.4967 7.51661 19.0434 7.69256 19.0434 8.13245V18.5655C19.0434 18.7415 18.8732 18.8581 18.5347 18.8581H10.7869C10.5038 18.8581 10.2781 18.7702 10.2781 18.5942V8.06551C10.2781 7.62562 9.82486 7.48027 9.3735 7.48027C8.92213 7.48027 8.46885 7.62754 8.46885 8.06551V18.7702C8.46885 18.8868 0 18.862 0 18.862C0.0191257 18.5311 0.0191257 1.48437 0 1.29885H8.31394C8.32541 1.55322 8.25273 2.74284 8.25847 2.97235C8.48607 2.64912 8.98716 1.81907 9.50355 1.56087C10.4082 1.033 11.9344 0.535733 13.7456 0.535733C15.7825 0.535733 16.2664 1.2606 17.171 1.87453C17.4541 2.07918 18.3473 4.0759 18.5175 4.0759C18.6877 4.0759 19.4814 2.04284 19.8525 1.7636C20.9139 0.784367 21.8779 0.499394 24.1347 0.535733C27.0189 0.583547 29.4497 2.63382 30.0273 4.33218V18.8639H30.0254Z" fill="white"/>
<path d="M29.0843 0.216268H36.748C36.9889 0.216268 38.4808 4.97665 38.4808 4.97665C38.5286 5.10479 38.5764 5.23485 38.672 5.23485C38.7198 5.23485 38.8155 5.1067 38.8652 4.97665C38.8652 4.97665 39.9018 0.585394 40.0605 0.216268H48.2348C48.428 0.216268 40.5827 19.0053 40.5827 19.0053C39.8138 19.0015 32.3471 18.9422 31.5075 19.0053L35.193 12.0646C35.2409 11.904 35.2409 11.7433 35.193 11.5807C35.193 11.5807 28.8911 0.214355 29.0824 0.214355L29.0843 0.216268Z" fill="white"/>
<path d="M46.4224 13.3305C44.9726 9.22995 46.9043 3.69306 51.7183 1.48213C56.0579 -0.510761 59.1888 -0.39792 62.2795 1.25071C65.4696 2.9529 67.4319 7.80891 67.4319 7.80891C67.5027 7.95427 55.8513 12.095 55.3407 12.3283L55.859 13.6422C56.3046 14.4111 57.4101 14.6004 57.9341 14.4742C59.5808 14.0764 59.3819 12.531 59.3819 12.531C59.3265 12.4144 67.3899 9.59142 67.3899 9.59142C67.4893 9.69088 67.5773 16.3772 60.6347 19.0414C56.8114 20.5084 49.9109 20.4797 47.2295 15.3922L46.4205 13.3267L46.4224 13.3305ZM54.1759 8.40563C55.5338 7.88924 57.2571 7.27339 57.8174 7.05345C56.9185 5.19826 56.2147 5.04525 54.9065 5.53678C53.5314 6.05509 54.0076 8.46875 54.1759 8.40372V8.40563Z" fill="#BCE7F3"/>
<path d="M82.3286 13.3305C80.8789 9.22995 82.8106 3.69306 87.6245 1.48213C91.9641 -0.510761 95.095 -0.39792 98.1857 1.25071C101.376 2.9529 103.338 7.80891 103.338 7.80891C103.409 7.95427 91.7576 12.095 91.2469 12.3283L91.7652 13.6422C92.2109 14.4111 93.3163 14.6004 93.8404 14.4742C95.4871 14.0764 95.2882 12.531 95.2882 12.531C95.2327 12.4144 103.296 9.59142 103.296 9.59142C103.396 9.69088 103.484 16.3772 96.5409 19.0414C92.7177 20.5084 85.8171 20.4797 83.1357 15.3922L82.3267 13.3267L82.3286 13.3305ZM90.0822 8.40563C91.4401 7.88924 93.1633 7.27339 93.7237 7.05345C92.8248 5.19826 92.121 5.04525 90.8128 5.53678C89.4376 6.05509 89.9139 8.46875 90.0822 8.40372V8.40563Z" fill="#BCE7F3"/>
<path d="M65.057 0.613729H72.7206C72.9616 0.613729 74.4534 5.37411 74.4534 5.37411C74.5012 5.50225 74.549 5.63231 74.6447 5.63231C74.6925 5.63231 74.7881 5.50417 74.8378 5.37411C74.8378 5.37411 75.8744 0.982855 76.0332 0.613729H84.2075C84.4007 0.613729 76.5553 19.4028 76.5553 19.4028C75.7865 19.399 68.3198 19.3397 67.4802 19.4028L71.1657 12.4621C71.2135 12.3014 71.2135 12.1408 71.1657 11.9782C71.1657 11.9782 64.8638 0.611816 65.055 0.611816L65.057 0.613729Z" fill="#BCE7F3"/>
<path d="M104.291 0.240886V0.225586C104.291 0.225586 104.062 0.225586 104.291 0.240886Z" fill="white"/>
<path d="M119.245 2.6716C118.075 1.72488 115.556 0.613673 114.303 0.583072C106.651 0.351652 104.706 0.269411 104.289 0.240723V18.9437H115.489C115.489 18.9437 118.411 18.1519 120.431 15.7689C122.946 12.7986 124.61 7.01695 119.245 2.6716ZM113.184 13.3877H111.01V6.17733H113.184C118.652 10.6088 113.184 13.3877 113.184 13.3877Z" fill="white"/>
<path d="M123.266 0.583558H131.962V3.00296C131.962 3.00296 133.609 1.14012 134.795 0.583558C135.98 0.0270003 138.419 0.241208 138.419 0.241208V8.55897C138.419 8.55897 136.311 5.91389 133.808 8.02919C133.018 8.55897 132.096 10.4065 132.094 12.3956C132.094 14.2814 132.094 18.9442 132.094 18.9442H123.268V0.583558H123.266Z" fill="white"/>
<path d="M137.069 19.1427C138.688 19.1427 140.001 17.8249 140.001 16.1993C140.001 14.5737 138.688 13.2559 137.069 13.2559C135.449 13.2559 134.137 14.5737 134.137 16.1993C134.137 17.8249 135.449 19.1427 137.069 19.1427Z" fill="white"/>
</g>
<defs>
<clipPath id="clip0_648_100">
<rect width="140" height="19.8831" fill="white"/>
</clipPath>
</defs>
</svg>
