<?xml version="1.0" encoding="UTF-8"?> <!-- Generator: Adobe Illustrator 27.8.1, SVG Export Plug-In . SVG Version: 6.00 Build 0) --> <svg xmlns="http://www.w3.org/2000/svg" xmlns:xlink="http://www.w3.org/1999/xlink" id="Layer_2_00000083053677514732966700000012271505292166195350_" x="0px" y="0px" viewBox="0 0 266.8 259.2" style="enable-background:new 0 0 266.8 259.2;" xml:space="preserve"> <style type="text/css"> .st0{fill:#FFFFFF;} .st1{enable-background:new ;} </style> <g> <path class="st0" d="M131.5,47.1c-23.2,0-42,18.8-42,42s18.8,42,42,42s42-18.8,42-42S154.8,47.1,131.5,47.1z M131.5,117.7 c-15.8,0-28.6-12.8-28.6-28.6s12.8-28.6,28.6-28.6s28.6,12.8,28.6,28.6S147.3,117.7,131.5,117.7z"></path> <path class="st0" d="M142.1,89.1c0,5.8-4.7,10.6-10.6,10.6S121,94.9,121,89.1s4.7-10.6,10.6-10.6S142.1,83.3,142.1,89.1z"></path> <path class="st0" d="M131.5,47.1c0,0,61.9-3,102.1,44c0,0-56.4,62.4-138.1,54.7L83.4,169l12.5-35.4c0,0,64.1,12.2,105.4-41.9 c0,0-15.9-28.1-42.8-34.8"></path> <path class="st0" d="M131.5,131.1c0,0-56.9,4.5-102.3-43.4c0,0,55.3-63.2,137.5-55l13-22.1l-12.2,34.6c0,0-64.1-11.6-106,42.5 c0,0,11.9,25.7,47.7,37.1"></path> <g class="st1"> <path class="st0" d="M49.6,207.2c0.3,0,0.6,0.1,0.9,0.4l2.3,2.5c-1.3,1.6-2.9,2.8-4.8,3.7c-1.9,0.9-4.2,1.3-6.8,1.3 c-2.4,0-4.5-0.4-6.4-1.2c-1.9-0.8-3.5-1.9-4.9-3.4c-1.3-1.4-2.4-3.2-3.1-5.2c-0.7-2-1.1-4.2-1.1-6.6c0-2.4,0.4-4.6,1.2-6.6 c0.8-2,1.8-3.7,3.2-5.2c1.4-1.4,3.1-2.6,5-3.4c1.9-0.8,4.1-1.2,6.4-1.2c2.3,0,4.4,0.4,6.2,1.2c1.8,0.8,3.3,1.8,4.6,3l-2,2.8 c-0.1,0.2-0.3,0.3-0.5,0.5s-0.4,0.2-0.8,0.2c-0.2,0-0.5-0.1-0.7-0.2c-0.2-0.1-0.5-0.3-0.8-0.5s-0.6-0.4-1-0.6 c-0.4-0.2-0.8-0.4-1.3-0.6c-0.5-0.2-1.1-0.3-1.7-0.5c-0.6-0.1-1.4-0.2-2.2-0.2c-1.4,0-2.7,0.3-3.9,0.8c-1.2,0.5-2.2,1.2-3.1,2.2 c-0.9,1-1.5,2.1-2,3.5c-0.5,1.4-0.7,3-0.7,4.8c0,1.8,0.3,3.4,0.8,4.8c0.5,1.4,1.2,2.6,2.1,3.5c0.9,1,1.9,1.7,3.1,2.2 s2.4,0.8,3.8,0.8c0.8,0,1.5,0,2.2-0.1c0.7-0.1,1.3-0.2,1.8-0.4c0.6-0.2,1.1-0.4,1.6-0.7c0.5-0.3,1-0.7,1.5-1.1 c0.1-0.1,0.3-0.2,0.5-0.3C49.2,207.2,49.4,207.2,49.6,207.2z"></path> <path class="st0" d="M62.4,185.4c0,0.5-0.1,0.9-0.3,1.3c-0.2,0.4-0.4,0.8-0.8,1.1c-0.3,0.3-0.7,0.6-1.1,0.7 c-0.4,0.2-0.9,0.3-1.4,0.3c-0.5,0-0.9-0.1-1.3-0.3c-0.4-0.2-0.8-0.4-1.1-0.7c-0.3-0.3-0.6-0.7-0.7-1.1s-0.3-0.9-0.3-1.3 c0-0.5,0.1-0.9,0.3-1.4s0.4-0.8,0.7-1.1c0.3-0.3,0.7-0.6,1.1-0.7s0.9-0.3,1.3-0.3c0.5,0,0.9,0.1,1.4,0.3c0.4,0.2,0.8,0.4,1.1,0.7 c0.3,0.3,0.6,0.7,0.8,1.1C62.3,184.5,62.4,184.9,62.4,185.4z M61.7,192v22.7h-5.5V192H61.7z"></path> <path class="st0" d="M66.7,195.2c2.6-2.4,5.8-3.6,9.4-3.6c1.3,0,2.5,0.2,3.6,0.7c1,0.4,1.9,1,2.7,1.8s1.3,1.7,1.6,2.8 c0.4,1.1,0.6,2.3,0.6,3.5v14.3h-2.5c-0.5,0-0.9-0.1-1.2-0.2s-0.5-0.5-0.7-0.9l-0.5-1.6c-0.6,0.5-1.1,1-1.7,1.4 c-0.5,0.4-1.1,0.7-1.7,1c-0.6,0.3-1.2,0.5-1.9,0.6c-0.7,0.1-1.4,0.2-2.2,0.2c-1,0-1.8-0.1-2.7-0.4s-1.5-0.6-2.1-1.2 c-0.6-0.5-1-1.2-1.4-1.9c-0.3-0.8-0.5-1.7-0.5-2.7c0-0.6,0.1-1.1,0.3-1.7c0.2-0.6,0.5-1.1,0.9-1.6s1-1,1.7-1.5 c0.7-0.5,1.5-0.9,2.6-1.2c1-0.3,2.2-0.6,3.5-0.8c1.3-0.2,2.9-0.3,4.6-0.4v-1.3c0-1.5-0.3-2.6-1-3.4c-0.6-0.7-1.6-1.1-2.8-1.1 c-0.9,0-1.6,0.1-2.2,0.3c-0.6,0.2-1.1,0.4-1.5,0.7c-0.4,0.3-0.8,0.5-1.2,0.7c-0.4,0.2-0.8,0.3-1.2,0.3c-0.4,0-0.7-0.1-1-0.3 s-0.5-0.4-0.6-0.7L66.7,195.2z M79.2,205c-1.6,0.1-2.9,0.2-4,0.4c-1.1,0.2-1.9,0.5-2.6,0.8c-0.6,0.3-1.1,0.7-1.4,1.1 s-0.4,0.9-0.4,1.3c0,1,0.3,1.6,0.9,2.1c0.6,0.4,1.3,0.6,2.2,0.6c1.1,0,2.1-0.2,2.9-0.6c0.8-0.4,1.6-1,2.4-1.8V205z"></path> <path class="st0" d="M89.7,214.7V192H93c0.7,0,1.2,0.3,1.4,1l0.4,1.7c0.4-0.4,0.8-0.8,1.3-1.2c0.4-0.4,0.9-0.7,1.4-1 s1-0.5,1.6-0.6c0.6-0.2,1.2-0.2,1.9-0.2c1.4,0,2.6,0.4,3.5,1.2s1.6,1.8,2.1,3.1c0.4-0.8,0.8-1.4,1.3-1.9c0.5-0.5,1.1-1,1.7-1.3 c0.6-0.3,1.3-0.6,2-0.8c0.7-0.2,1.4-0.2,2.2-0.2c1.3,0,2.4,0.2,3.3,0.6c1,0.4,1.8,0.9,2.5,1.7c0.7,0.7,1.2,1.6,1.5,2.7 c0.3,1.1,0.5,2.3,0.5,3.7v14.5h-5.5v-14.5c0-1.4-0.3-2.5-1-3.3s-1.6-1.1-2.8-1.1c-0.6,0-1.1,0.1-1.6,0.3c-0.5,0.2-0.9,0.5-1.3,0.8 c-0.4,0.4-0.6,0.8-0.9,1.4s-0.3,1.2-0.3,1.9v14.5h-5.5v-14.5c0-1.5-0.3-2.6-0.9-3.3c-0.6-0.7-1.5-1-2.7-1c-0.8,0-1.5,0.2-2.2,0.6 c-0.7,0.4-1.3,0.9-1.9,1.6v16.6H89.7z"></path> <path class="st0" d="M132.2,194.8c0.9-1,1.9-1.7,3-2.3c1.1-0.6,2.4-0.9,3.8-0.9c1.3,0,2.5,0.3,3.6,0.8c1.1,0.5,2,1.3,2.7,2.2 c0.7,1,1.3,2.1,1.7,3.5s0.6,2.9,0.6,4.6c0,1.8-0.2,3.5-0.7,5c-0.5,1.5-1.1,2.8-2,3.9c-0.8,1.1-1.9,1.9-3.1,2.5 c-1.2,0.6-2.5,0.9-4,0.9c-0.7,0-1.3-0.1-1.9-0.2c-0.6-0.1-1.1-0.3-1.6-0.6c-0.5-0.3-0.9-0.6-1.3-0.9c-0.4-0.4-0.8-0.8-1.2-1.2 l-0.2,1.5c-0.1,0.4-0.2,0.7-0.5,0.8s-0.5,0.2-0.9,0.2h-3.6v-32.9h5.5V194.8z M132.2,208.9c0.6,0.8,1.3,1.3,2,1.6 c0.7,0.3,1.5,0.5,2.3,0.5c0.8,0,1.6-0.2,2.3-0.5c0.7-0.3,1.2-0.8,1.7-1.4c0.5-0.6,0.8-1.5,1.1-2.5c0.3-1,0.4-2.2,0.4-3.6 c0-2.5-0.4-4.3-1.2-5.4s-2-1.7-3.6-1.7c-1,0-2,0.2-2.7,0.7s-1.5,1.2-2.2,2V208.9z"></path> </g> <g class="st1"> <path class="st0" d="M157,196c0.7-1.4,1.5-2.4,2.5-3.2s2.1-1.2,3.5-1.2c1,0,1.9,0.2,2.5,0.7l-0.4,4.1c-0.1,0.3-0.2,0.5-0.3,0.6 c-0.1,0.1-0.3,0.2-0.6,0.2c-0.2,0-0.5,0-1-0.1c-0.4-0.1-0.9-0.1-1.3-0.1c-0.6,0-1.1,0.1-1.6,0.3c-0.5,0.2-0.9,0.4-1.3,0.8 c-0.4,0.3-0.7,0.7-1,1.2c-0.3,0.5-0.6,1-0.8,1.6v14h-5.5V192h3.2c0.6,0,1,0.1,1.2,0.3c0.2,0.2,0.4,0.6,0.4,1.1L157,196z"></path> </g> <g class="st1"> <path class="st0" d="M177.8,191.7c1.7,0,3.2,0.3,4.6,0.8c1.4,0.5,2.6,1.3,3.5,2.3c1,1,1.7,2.2,2.3,3.7s0.8,3.1,0.8,4.8 c0,1.8-0.3,3.4-0.8,4.9c-0.5,1.4-1.3,2.7-2.3,3.7c-1,1-2.2,1.8-3.5,2.3c-1.4,0.5-2.9,0.8-4.6,0.8c-1.7,0-3.2-0.3-4.6-0.8 c-1.4-0.5-2.6-1.3-3.6-2.3c-1-1-1.7-2.2-2.3-3.7c-0.5-1.4-0.8-3.1-0.8-4.9c0-1.8,0.3-3.4,0.8-4.8s1.3-2.7,2.3-3.7 c1-1,2.2-1.8,3.6-2.3S176.1,191.7,177.8,191.7z M177.8,210.9c1.9,0,3.3-0.6,4.2-1.9c0.9-1.3,1.4-3.1,1.4-5.6s-0.5-4.3-1.4-5.6 c-0.9-1.3-2.3-1.9-4.2-1.9c-1.9,0-3.3,0.6-4.3,1.9s-1.4,3.2-1.4,5.6s0.5,4.3,1.4,5.6C174.4,210.2,175.9,210.9,177.8,210.9z"></path> <path class="st0" d="M198.3,194.8c0.5-0.5,0.9-0.9,1.4-1.3c0.5-0.4,1-0.7,1.6-1c0.6-0.3,1.2-0.5,1.8-0.6c0.6-0.2,1.4-0.2,2.1-0.2 c1.2,0,2.3,0.2,3.3,0.6s1.8,1,2.4,1.8s1.1,1.7,1.5,2.7c0.3,1.1,0.5,2.2,0.5,3.5v14.5h-5.5v-14.5c0-1.4-0.3-2.5-1-3.2 c-0.6-0.8-1.6-1.1-2.9-1.1c-0.9,0-1.8,0.2-2.7,0.6c-0.8,0.4-1.6,1-2.3,1.7v16.4h-5.5V192h3.3c0.7,0,1.2,0.3,1.4,1L198.3,194.8z"></path> <path class="st0" d="M222.3,204.1c0.1,1.2,0.3,2.2,0.6,3c0.3,0.8,0.8,1.5,1.3,2.1c0.5,0.6,1.2,1,1.9,1.2c0.7,0.3,1.5,0.4,2.4,0.4 c0.9,0,1.6-0.1,2.3-0.3c0.6-0.2,1.2-0.4,1.7-0.7s0.9-0.5,1.3-0.7c0.4-0.2,0.7-0.3,1.1-0.3c0.5,0,0.8,0.2,1,0.5l1.6,2 c-0.6,0.7-1.3,1.3-2,1.8s-1.5,0.9-2.4,1.2c-0.8,0.3-1.7,0.5-2.5,0.6c-0.8,0.1-1.7,0.2-2.5,0.2c-1.6,0-3-0.3-4.4-0.8 c-1.4-0.5-2.5-1.3-3.5-2.3c-1-1-1.8-2.3-2.4-3.8c-0.6-1.5-0.9-3.3-0.9-5.3c0-1.5,0.3-3,0.8-4.4c0.5-1.4,1.2-2.6,2.2-3.6 c0.9-1,2.1-1.8,3.4-2.4c1.4-0.6,2.9-0.9,4.6-0.9c1.4,0,2.8,0.2,4,0.7c1.2,0.5,2.2,1.1,3.1,2c0.9,0.9,1.6,2,2,3.2s0.7,2.7,0.7,4.4 c0,0.8-0.1,1.4-0.3,1.7c-0.2,0.3-0.5,0.4-1,0.4H222.3z M232.8,200.8c0-0.7-0.1-1.4-0.3-2s-0.5-1.2-0.9-1.6 c-0.4-0.5-0.9-0.8-1.5-1.1c-0.6-0.3-1.3-0.4-2.1-0.4c-1.6,0-2.8,0.5-3.7,1.3c-0.9,0.9-1.5,2.2-1.7,3.8H232.8z"></path> </g> <g class="st1"> <path class="st0" d="M99.1,226.5l-9.1,21h-4.8l-9.1-21h5.2l6.4,15l6.5-15H99.1z"></path> </g> <g class="st1"> <path class="st0" d="M100.8,226.5h4.9v21h-4.9V226.5z"></path> <path class="st0" d="M109,245.4l1.7-3.7c1.8,1.3,4.4,2.2,6.9,2.2c2.9,0,4-1,4-2.2c0-3.9-12.2-1.2-12.2-9c0-3.6,2.9-6.5,8.8-6.5 c2.6,0,5.3,0.6,7.3,1.9l-1.5,3.7c-2-1.1-4-1.6-5.8-1.6c-2.9,0-4,1.1-4,2.4c0,3.9,12.2,1.2,12.2,8.9c0,3.5-2.9,6.5-8.9,6.5 C114.2,247.8,110.9,246.8,109,245.4z"></path> <path class="st0" d="M129.8,226.5h4.9v21h-4.9V226.5z"></path> <path class="st0" d="M138.3,237c0-6.2,4.9-10.9,11.5-10.9c6.6,0,11.5,4.6,11.5,10.9c0,6.3-4.9,10.9-11.5,10.9 C143.2,247.8,138.3,243.2,138.3,237z M156.4,237c0-4-2.8-6.7-6.6-6.7s-6.6,2.7-6.6,6.7c0,4,2.8,6.7,6.6,6.7S156.4,241,156.4,237z"></path> <path class="st0" d="M184.2,226.5v21h-4l-10.5-12.7v12.7h-4.8v-21h4l10.4,12.7v-12.7H184.2z"></path> </g> </g> </svg> 